<?xml version="1.0" encoding="utf-8"?>
<!-- Generator: Adobe Illustrator 18.1.1, SVG Export Plug-In . SVG Version: 6.00 Build 0)  -->
<svg version="1.1" id="Layer_1" xmlns="http://www.w3.org/2000/svg" xmlns:xlink="http://www.w3.org/1999/xlink" x="0px" y="0px"
	 viewBox="0 0 80 40" enable-background="new 0 0 80 40" xml:space="preserve">
<g>
	<rect x="40" y="0" fill="#0094B3" width="40" height="40"/>
	<rect x="0" y="0" fill="#0094B3" width="32" height="1.5"/>
	<rect x="0" y="38.5" fill="#0094B3" width="32" height="1.5"/>
	<path fill="#757678" d="M30.3,20.6c-2.6,0-3.8,1-3.8,2.8v3.9c0,1.5,0.7,2.4,2,2.4c1,0,1.5-0.4,1.9-0.9h0.1v0.8H32V17.5
		c0-1.9-1-2.5-2.6-2.5c-1.5,0-2.8,0.9-2.8,2.4V19h1.7v-1.4c0-0.9,0.1-1.4,1.1-1.4c0.7,0,1,0.3,1,1.2V20.6z M30.3,27
		c0,1-0.4,1.5-1.1,1.5c-0.9,0-1-0.6-1-1.6v-3.3c0-1.2,1.3-1.6,2.2-1.6V27z M22.9,25.9c0,0.9-0.3,1.6-1.2,1.6c-0.7,0-1-0.6-1-1.1
		v-8.5c0-1,0.3-1.4,0.9-1.4c0.6,0,1.3,0.3,1.3,1.2V25.9z M23,16.1L23,16.1c-0.4-0.6-1-1.1-1.9-1.1c-1.3,0-2.1,1-2.1,2.3v9.2
		c0,1.8,1,2.5,2.1,2.5c0.7,0,1.3-0.3,1.7-0.9h0.1v2c0,0.7-0.4,1.3-1.1,1.3c-0.6,0-1-0.3-1-1.3v-0.4h-1.7v0.5c0,1.7,1.4,2.3,2.5,2.3
		c1.9,0,2.9-1,2.9-3V15.1H23V16.1z M15.5,27c0,1.1-0.4,1.5-1.1,1.5s-1.1-0.4-1.1-1.5v-4.2h3.8v-5c0-2.2-1.3-2.8-2.7-2.8
		c-1.4,0-2.7,0.6-2.7,2.8V27c0,2.2,1.3,2.8,2.7,2.8c1.4,0,2.7-0.6,2.7-2.8v-2.1h-1.7V27z M15.5,21.3h-2.2v-3.5
		c0-1.1,0.4-1.5,1.1-1.5s1.1,0.4,1.1,1.5V21.3z M4.8,27.6L4.8,27.6l-2-17.2H0v19.2h1.5V11.9h0.1l2,17.8h2.2l2-17.8h0.1v17.8h1.5
		V10.4H6.7L4.8,27.6z"/>
	<path fill="#FFFFFF" d="M66.4,29.6H68V10.4h-1.7V29.6z M62.4,27c0,1.1-0.4,1.5-1.1,1.5s-1.1-0.4-1.1-1.5v-4.2H64v-5
		c0-2.2-1.3-2.8-2.7-2.8c-1.4,0-2.7,0.6-2.7,2.8V27c0,2.2,1.3,2.8,2.7,2.8c1.4,0,2.7-0.6,2.7-2.8v-2.1h-1.7V27z M62.4,21.3h-2.2
		v-3.5c0-1.1,0.4-1.5,1.1-1.5s1.1,0.4,1.1,1.5V21.3z M53.9,29.6h1.8V11.9h2v-1.5H52v1.5h2V29.6z"/>
</g>
</svg>
